<?xml version="1.0" encoding="utf-8"?>
<!-- Generator: Adobe Illustrator 15.0.0, SVG Export Plug-In . SVG Version: 6.00 Build 0)  -->
<svg version="1.2" baseProfile="tiny" id="Layer_1" xmlns="http://www.w3.org/2000/svg" xmlns:xlink="http://www.w3.org/1999/xlink"
	 x="0px" y="0px" width="332.333px" height="144.334px" viewBox="0 0 332.333 144.334" xml:space="preserve">
<path id="Cat" fill-rule="evenodd" fill="#3E3E3E" d="M329.684,123.908c0.191-0.032-3.282,14.53-3.774,14.688
	c-17.827,5.728-53.388,7.018-102.251-22.741c-10.304-6.272-21.744-10.133-32.959-13.386c-10.802-3.129-22.584-4.785-33.987-5.093
	c-7.213-0.195-18.721,2.636-28.352,4.752c-2.458,0.54-16.647,5.719-32.858,18.744c-16.282,13.082-38.13,20.968-57.833,20.802
	l8.617-15.548c11.668-2.685,21.006-2.214,36.082-18.854c8.538-9.423,13.421-29.647,19.09-36.196
	c1.409-1.626-24.542-13.095-24.009-11.735c3.341,8.447,10.62,25.713,10.022,25.34C60.178,67.639,34.069,52.179,5.21,38.106
	c-1.506-0.733-4.568-4.683,1.118-3.043c19.98,5.767,58.333,20.829,59.387,22.761c0.025,0.077,0.05,0.146,0.075,0.223l-0.032-0.162
	c-0.003-0.016-0.033-0.041-0.042-0.061c-6.247-18.231-6.113-18.287-5.973-18.292c3.653-0.126,33.07,5.795,51.92,20.278
	c0.462-0.093,0.53,0.417,1.941-0.93c3.956-3.786,13.937-6.654,14.187-6.723c2.934-0.775,19.511-3.254,33.432,2.481
	c11.77,4.848,17.358,8.434,35.823,10.689c7.064,0.862,23.521,0.535,29.945-1.703c11.563-4.023,12.362-6.948,17.918-14.409
	c0.354-0.476-5.355-7.129-2.693-17.115c1.938-7.266,5.281-7.784,5.15-8.547c-1.24-7.314-1.955-13.069-3.424-20.34
	c-0.393-1.938-0.119-2.85,2.244-1.033c5.921,4.554,10.34,8.939,16.266,13.485c0.191-0.013-0.38,0.147,0.155,0.053
	c10.558-1.926,19.399-0.06,23.028,3.029c0.141,0.12,0.161,0.183,0.379,0.091c6.283-2.674,12.37-5.029,18.395-8.305
	c1.364-0.74,3.054-1.036,1.843,2.428c-2.062,5.895-3.747,12.214-5.808,18.108c0.023,0.058,0.025,0.136,0.071,0.172
	c3.118,2.473,4.325,10.948,4.128,13.722c-0.168,2.347-1.531,12.627-14.441,19.265c-5.808,2.986-9.023,5.039-13.064,9.871
	c-4.135,4.942-6.465,13.344-4.91,21.891c0.314,1.735,6.33,16.938,18.643,23.1C302.561,124.941,312.41,126.91,329.684,123.908z
	 M286.01,40.216c-3.115,0.629-5.959,2.629-7.781,5.842c-0.666,1.173-1.098,2.416-1.41,3.709c5.777,3.996,13.096,2.391,16.631-3.829
	c0.662-1.172,1.095-2.421,1.409-3.708C292.064,40.301,288.924,39.627,286.01,40.216z M252.572,34.971
	c-0.357,0.071-0.701,0.228-1.05,0.336c0.113,4.603,2.181,9.197,5.874,12.039c3.264,2.508,7.094,3.047,10.484,1.995
	c-0.115-4.601-2.176-9.167-5.867-12.008C259.084,35.084,255.688,34.341,252.572,34.971z M258.312,66.804
	c-0.03,0.261-2.914,6.296,0.03,20.682c0.839,4.093,4.11,12.471,13.278,21.283c3.428,3.294,2.066,0.219,1.055-1.209
	c-5.186-7.304-6.643-15.728-6.857-16.815c-1.953-9.824,2.635-17.309,2.512-17.382c-3.176-1.862-9.209-6.43-9.937-6.699
	L258.312,66.804z M266.834,59.61c0.157,0.304,2.126,3.481,3.548,5.335c1.004,1.311,0.864,1.204,2.044,0.211
	c0.201-0.17,3.812-4.273,3.899-4.438c0.054-0.099-0.05-0.1-0.096-0.206c-4.024-2.921-8.829-1.301-9.356-1.058L266.834,59.61z"/>
</svg>
