<?xml version="1.0" encoding="UTF-8" standalone="no"?>
<!-- Created with Inkscape (http://www.inkscape.org/) -->

<svg
   xmlns:dc="http://purl.org/dc/elements/1.1/"
   xmlns:cc="http://creativecommons.org/ns#"
   xmlns:rdf="http://www.w3.org/1999/02/22-rdf-syntax-ns#"
   xmlns:svg="http://www.w3.org/2000/svg"
   xmlns="http://www.w3.org/2000/svg"
   xmlns:xlink="http://www.w3.org/1999/xlink"
   xmlns:sodipodi="http://sodipodi.sourceforge.net/DTD/sodipodi-0.dtd"
   xmlns:inkscape="http://www.inkscape.org/namespaces/inkscape"
   id="svg2"
   version="1.1"
   inkscape:version="0.48.2 r9819"
   width="632.41998"
   height="427.37"
   xml:space="preserve"
   sodipodi:docname="sticker.svg"><metadata
     id="metadata8"><rdf:RDF><cc:Work
         rdf:about=""><dc:format>image/svg+xml</dc:format><dc:type
           rdf:resource="http://purl.org/dc/dcmitype/StillImage" /><dc:title></dc:title></cc:Work></rdf:RDF></metadata><defs
     id="defs6"><pattern
       inkscape:collect="always"
       xlink:href="#Checkerboard"
       id="pattern7325"
       patternTransform="matrix(16.702855,0,0,16.750731,-6.763765,-13.078752)" /><pattern
       inkscape:stockid="Checkerboard"
       id="Checkerboard"
       patternTransform="translate(0,0) scale(10,10)"
       height="2"
       width="2"
       patternUnits="userSpaceOnUse"
       inkscape:collect="always"><rect
         id="rect5172"
         height="1"
         width="1"
         y="0"
         x="0"
         style="fill:black;stroke:none" /><rect
         id="rect5174"
         height="1"
         width="1"
         y="1"
         x="1"
         style="fill:black;stroke:none" /></pattern><marker
       inkscape:stockid="Arrow1Mstart"
       orient="auto"
       refY="0"
       refX="0"
       id="Arrow1Mstart"
       style="overflow:visible"><path
         id="path5825"
         d="M 0,0 5,-5 -12.5,0 5,5 0,0 z"
         style="fill-rule:evenodd;stroke:#000000;stroke-width:1pt;marker-start:none"
         transform="matrix(0.4,0,0,0.4,4,0)"
         inkscape:connector-curvature="0" /></marker><marker
       inkscape:stockid="Arrow1Lstart"
       orient="auto"
       refY="0"
       refX="0"
       id="Arrow1Lstart"
       style="overflow:visible"><path
         id="path5819"
         d="M 0,0 5,-5 -12.5,0 5,5 0,0 z"
         style="fill-rule:evenodd;stroke:#000000;stroke-width:1pt;marker-start:none"
         transform="matrix(0.8,0,0,0.8,10,0)"
         inkscape:connector-curvature="0" /></marker><clipPath
       clipPathUnits="userSpaceOnUse"
       id="clipPath26"><path
         d="m 0,864 715.32,0 0,-864 L 0,0 0,864 z"
         id="path28"
         inkscape:connector-curvature="0" /></clipPath><clipPath
       clipPathUnits="userSpaceOnUse"
       id="clipPath126"><path
         d="m 0,864 715.32,0 0,-864 L 0,0 0,864 z"
         id="path128"
         inkscape:connector-curvature="0" /></clipPath></defs><sodipodi:namedview
     pagecolor="#ffffff"
     bordercolor="#666666"
     borderopacity="1"
     objecttolerance="10"
     gridtolerance="10"
     guidetolerance="10"
     inkscape:pageopacity="0"
     inkscape:pageshadow="2"
     inkscape:window-width="1510"
     inkscape:window-height="951"
     id="namedview4"
     showgrid="false"
     inkscape:zoom="1.3338306"
     inkscape:cx="311.18726"
     inkscape:cy="198.19893"
     inkscape:window-x="381"
     inkscape:window-y="14"
     inkscape:window-maximized="0"
     inkscape:current-layer="layer8"
     inkscape:snap-smooth-nodes="true"
     fit-margin-top="20"
     fit-margin-left="20"
     fit-margin-right="20"
     fit-margin-bottom="20"
     units="px" /><g
     inkscape:groupmode="layer"
     id="layer8"
     inkscape:label="background"
     transform="translate(-0.12194,7.681645)"><rect
       style="opacity:0.25000000000000000;fill:url(#pattern7325);fill-opacity:1;stroke:#000000;stroke-width:0;stroke-linecap:butt;stroke-linejoin:round;stroke-miterlimit:4;stroke-opacity:1;stroke-dasharray:none"
       id="rect7299"
       width="632.41998"
       height="427.37"
       x="0.12194"
       y="-7.6816449" /></g><g
     inkscape:groupmode="layer"
     id="layer6"
     inkscape:label="stickerguy"
     style="display:inline"
     transform="translate(-0.12194,7.681645)"><path
       inkscape:connector-curvature="0"
       style="fill:none;stroke:none"
       d="m 20.12194,14.35102 592.42172,0 0,383.3317 -592.42172,0 0,-383.3317 z"
       id="path6749" /><path
       inkscape:connector-curvature="0"
       style="fill:#000000;fill-rule:evenodd;stroke:#000000;stroke-width:15.48799992;stroke-miterlimit:4;stroke-opacity:1;stroke-dasharray:none"
       d="m 316.26504,20.06615 c 158.61414,0 287.36132,83.30688 287.36132,185.93911 0,102.63222 -128.74718,185.9391 -287.36132,185.9391 -158.61491,0 -287.36132,-83.30688 -287.36132,-185.9391 0,-102.63223 128.74641,-185.93911 287.36132,-185.93911 z"
       id="path6751" /></g><g
     transform="translate(-0.12194,7.681645)"
     style="display:none"
     inkscape:label="stickerguy white border"
     id="g7327"
     inkscape:groupmode="layer"><path
       id="path7329"
       d="m 20.12194,14.35102 592.42172,0 0,383.3317 -592.42172,0 0,-383.3317 z"
       style="fill:none;stroke:none"
       inkscape:connector-curvature="0" /><path
       id="path7331"
       d="m 316.26504,20.06615 c 158.61414,0 287.36132,83.30688 287.36132,185.93911 0,102.63222 -128.74718,185.9391 -287.36132,185.9391 -158.61491,0 -287.36132,-83.30688 -287.36132,-185.9391 0,-102.63223 128.74641,-185.93911 287.36132,-185.93911 z"
       style="fill:#000000;fill-rule:evenodd;stroke:#ffffff;stroke-width:15.48799992;stroke-miterlimit:4;stroke-opacity:1;stroke-dasharray:none"
       inkscape:connector-curvature="0" /></g><g
     inkscape:groupmode="layer"
     id="g7333"
     inkscape:label="stickerguy white stripe"
     style="display:none"
     transform="translate(-0.12194,7.681645)"><path
       inkscape:connector-curvature="0"
       style="fill:none;stroke:none"
       d="m 20.12194,14.35102 592.42172,0 0,383.3317 -592.42172,0 0,-383.3317 z"
       id="path7335" /><path
       inkscape:connector-curvature="0"
       style="fill:#000000;fill-rule:evenodd;stroke:#ffffff;stroke-width:5;stroke-linecap:round;stroke-linejoin:round;stroke-miterlimit:4;stroke-opacity:1;stroke-dasharray:none"
       d="m 316.26504,20.06615 c 158.61414,0 287.36132,83.30688 287.36132,185.93911 0,102.63222 -128.74718,185.9391 -287.36132,185.9391 -158.61491,0 -287.36132,-83.30688 -287.36132,-185.9391 0,-102.63223 128.74641,-185.93911 287.36132,-185.93911 z"
       id="path7337" /></g><g
     inkscape:groupmode="layer"
     id="layer2"
     inkscape:label="nine-bottom"
     style="display:none"
     transform="translate(-0.12194,7.681645)"><g
       style="fill:#ffffff;stroke:none;display:inline"
       id="g134"
       transform="matrix(1.25,0,0,-1.25,340.70512,359.47512)"><path
         d="m 0,0 -29.879,21.118 c 21.102,29.861 44.227,74.779 47.595,102.859 l 36.328,-4.358 C 49.125,78.597 17.759,25.128 0,0"
         style="fill:#ffffff;fill-opacity:1;fill-rule:nonzero;stroke:none"
         id="path136"
         inkscape:connector-curvature="0" /></g><g
       style="fill:#ffffff;stroke:none;display:inline"
       id="g130"
       transform="matrix(1.25,0,0,-1.25,331.14825,147.51588)"><path
         d="m 0,0 c -6.693,0 -13.136,-3.169 -18.142,-8.925 -11.654,-13.396 -11.654,-36.032 0,-49.43 5.006,-5.754 11.449,-8.925 18.142,-8.925 6.693,0 13.136,3.171 18.142,8.925 11.654,13.398 11.654,36.034 0,49.43 C 13.136,-3.169 6.693,0 0,0 m 0,-103.868 c -17.441,0 -33.688,7.637 -45.748,21.499 -11.429,13.138 -17.724,30.445 -17.724,48.728 0,18.287 6.295,35.593 17.724,48.732 12.06,13.862 28.307,21.499 45.748,21.499 17.442,0 33.688,-7.637 45.748,-21.499 11.43,-13.139 17.724,-30.445 17.724,-48.732 0,-18.283 -6.294,-35.59 -17.724,-48.728 C 33.688,-96.231 17.442,-103.868 0,-103.868"
         style="fill:#ffffff;fill-opacity:1;fill-rule:nonzero;stroke:none"
         id="path132"
         inkscape:connector-curvature="0" /></g></g><g
     style="display:inline"
     inkscape:label="nine-bottom w strokes"
     id="g6709"
     inkscape:groupmode="layer"
     transform="translate(-0.12194,7.681645)"><path
       style="fill:#ffffff;fill-opacity:1;fill-rule:nonzero;stroke:#000000;stroke-width:5;stroke-linejoin:round;stroke-miterlimit:4;stroke-opacity:1;stroke-dasharray:none"
       d="m 331.15625,101.78125 c -21.80125,0 -42.1125,9.5475 -57.1875,26.875 -14.28625,16.42375 -22.15625,38.0475 -22.15625,60.90625 0,22.85375 7.87,44.48375 22.15625,60.90625 15.075,17.3275 35.38625,26.875 57.1875,26.875 1.92856,0 3.84742,-0.0706 5.75,-0.21875 -10.17333,20.02582 -22.11735,39.74171 -33.5625,55.9375 l 37.375,26.40625 c 22.05663,-31.20891 60.87832,-97.38617 67.40625,-148.53125 1.55608,-6.91638 2.375,-14.08022 2.375,-21.375 0,-22.85875 -7.86875,-44.4825 -22.15625,-60.90625 -15.075,-17.3275 -35.385,-26.875 -57.1875,-26.875 z m 0,45.75 c 8.36625,0 16.39875,3.96125 22.65625,11.15625 14.5675,16.745 14.5675,45.03375 0,61.78125 -6.2575,7.1925 -14.29,11.15625 -22.65625,11.15625 -8.36625,0 -16.43,-3.96375 -22.6875,-11.15625 -14.5675,-16.7475 -14.5675,-45.03625 0,-61.78125 6.2575,-7.195 14.32125,-11.15625 22.6875,-11.15625 z"
       id="path6713"
       inkscape:connector-curvature="0" /></g><g
     inkscape:groupmode="layer"
     id="layer3"
     inkscape:label="cat"
     style="display:inline"
     transform="translate(-0.12194,7.681645)"><g
       id="g138"
       transform="matrix(1.25,0,0,-1.25,456.70913,263.5755)"
       style="fill:#ffffff;stroke:none;display:inline"><path
         d="m 0,0 c -10.849,8.477 -13.734,24.57 -13.7,26.332 0.168,8.687 4.116,16.46 9.147,20.486 4.917,3.937 8.476,5.312 14.76,7.09 13.969,3.951 17.34,13.758 17.969,16.025 0.743,2.678 1.238,11.226 -1.33,14.266 -0.038,0.045 -0.024,0.122 -0.035,0.183 3.187,5.371 6.09,11.23 9.277,16.601 1.872,3.155 0.159,3.2 -1.325,2.743 -6.555,-2.017 -12.987,-3.121 -19.676,-4.497 -0.231,-0.047 -0.238,0.017 -0.353,0.164 -2.944,3.746 -11.243,7.326 -21.973,7.528 -0.543,0.012 0.048,0.057 -0.141,0.082 -4.91,5.628 -8.372,10.804 -13.275,16.438 -1.956,2.249 -2.404,1.411 -2.404,-0.568 0,-7.418 -0.438,-13.201 -0.67,-20.615 -0.023,-0.775 -3.402,-0.62 -6.741,-7.358 -4.586,-9.261 -0.307,-16.915 -0.748,-17.31 -6.923,-6.213 -8.284,-8.922 -20.416,-10.578 -6.74,-0.921 -22.935,2.016 -29.69,4.26 -17.653,5.867 -22.421,10.488 -32.998,17.569 -12.511,8.379 -29.25,9.231 -32.279,9.051 -0.258,-0.017 -10.61,-0.852 -15.236,-3.78 -1.65,-1.043 -1.616,-0.528 -2.087,-0.528 -15.61,17.929 -43.272,29.556 -46.878,30.155 -0.139,0.024 -0.281,-0.006 2.233,-19.113 0.006,-0.021 0.03,-0.051 0.03,-0.067 l 0,-0.165 c -0.01,0.08 -0.02,0.152 -0.03,0.232 -0.65,2.103 -35.262,24.461 -53.706,34.067 -5.248,2.735 -3.028,-1.744 -1.698,-2.761 25.503,-19.507 48.034,-39.828 71.413,-61.937 0.512,-0.483 -3.205,17.881 -4.807,26.823 -0.253,1.436 22.913,-14.941 21.211,-16.256 -6.854,-5.297 -15.644,-24.156 -25.878,-31.701 -18.072,-13.326 -27.132,-11.016 -39.1,-11.339 l -11.525,-13.533 c 19.28,-4.063 42.257,-0.659 60.806,8.942 18.469,9.558 33.403,11.825 35.919,11.868 9.86,0.168 21.7,0.664 28.731,-0.955 11.117,-2.56 22.339,-6.515 32.307,-11.72 10.349,-5.408 20.799,-11.458 29.656,-19.647 42.005,-38.842 77.118,-44.617 95.726,-42.534 0.513,0.057 6.802,13.645 6.607,13.651 C 19.568,-11.93 10.302,-8.049 0,0"
         style="fill:#ffffff;fill-opacity:1;fill-rule:evenodd;stroke:none"
         id="path140"
         inkscape:connector-curvature="0" /></g></g><g
     style="display:inline"
     inkscape:label="cat w strokes"
     id="g4372"
     inkscape:groupmode="layer"
     transform="translate(-0.12194,7.681645)"><g
       style="fill:#ffffff;stroke:#000000;stroke-width:4;stroke-linejoin:round;stroke-miterlimit:4;stroke-opacity:1;stroke-dasharray:none;display:inline"
       transform="matrix(1.25,0,0,-1.25,456.70913,263.5755)"
       id="g4374"><path
         inkscape:connector-curvature="0"
         id="path4376"
         style="fill:#ffffff;fill-opacity:1;fill-rule:evenodd;stroke:#000000;stroke-width:4;stroke-linejoin:round;stroke-miterlimit:4;stroke-opacity:1;stroke-dasharray:none"
         d="m 0,0 c -10.849,8.477 -13.734,24.57 -13.7,26.332 0.168,8.687 4.116,16.46 9.147,20.486 4.917,3.937 8.476,5.312 14.76,7.09 13.969,3.951 17.34,13.758 17.969,16.025 0.743,2.678 1.238,11.226 -1.33,14.266 -0.038,0.045 -0.024,0.122 -0.035,0.183 3.187,5.371 6.09,11.23 9.277,16.601 1.872,3.155 0.159,3.2 -1.325,2.743 -6.555,-2.017 -12.987,-3.121 -19.676,-4.497 -0.231,-0.047 -0.238,0.017 -0.353,0.164 -2.944,3.746 -11.243,7.326 -21.973,7.528 -0.543,0.012 0.048,0.057 -0.141,0.082 -4.91,5.628 -8.372,10.804 -13.275,16.438 -1.956,2.249 -2.404,1.411 -2.404,-0.568 0,-7.418 -0.438,-13.201 -0.67,-20.615 -0.023,-0.775 -3.402,-0.62 -6.741,-7.358 -4.586,-9.261 -0.307,-16.915 -0.748,-17.31 -6.923,-6.213 -8.284,-8.922 -20.416,-10.578 -6.74,-0.921 -22.935,2.016 -29.69,4.26 -17.653,5.867 -22.421,10.488 -32.998,17.569 -12.511,8.379 -29.25,9.231 -32.279,9.051 -0.258,-0.017 -10.61,-0.852 -15.236,-3.78 -1.65,-1.043 -1.616,-0.528 -2.087,-0.528 -15.61,17.929 -43.272,29.556 -46.878,30.155 -0.139,0.024 -0.281,-0.006 2.233,-19.113 0.006,-0.021 0.03,-0.051 0.03,-0.067 l 0,-0.165 c -0.01,0.08 -0.02,0.152 -0.03,0.232 -0.65,2.103 -35.262,24.461 -53.706,34.067 -5.248,2.735 -3.028,-1.744 -1.698,-2.761 25.503,-19.507 48.034,-39.828 71.413,-61.937 0.512,-0.483 -3.205,17.881 -4.807,26.823 -0.253,1.436 22.913,-14.941 21.211,-16.256 -6.854,-5.297 -15.644,-24.156 -25.878,-31.701 -18.072,-13.326 -27.132,-11.016 -39.1,-11.339 l -11.525,-13.533 c 19.28,-4.063 42.257,-0.659 60.806,8.942 18.469,9.558 33.403,11.825 35.919,11.868 9.86,0.168 21.7,0.664 28.731,-0.955 11.117,-2.56 22.339,-6.515 32.307,-11.72 10.349,-5.408 20.799,-11.458 29.656,-19.647 42.005,-38.842 77.118,-44.617 95.726,-42.534 0.513,0.057 6.802,13.645 6.607,13.651 C 19.568,-11.93 10.302,-8.049 0,0" /></g></g><g
     inkscape:groupmode="layer"
     id="layer4"
     inkscape:label="cat overlays"
     style="display:inline"
     transform="translate(-0.12194,7.681645)"><g
       id="g150"
       transform="matrix(1.25,0,0,-1.25,429.89325,191.30125)"
       style="fill:#000000;display:inline"><path
         d="M 0,0 C 0.659,-0.407 5.669,-6.08 8.413,-8.533 8.52,-8.63 2.541,-15.058 2.51,-25.074 c -0.005,-1.11 -0.243,-9.655 3.393,-17.842 0.71,-1.598 1.434,-4.883 -1.273,-0.976 -7.243,10.454 -8.791,19.314 -8.802,23.492 -0.038,14.683 3.983,20.028 4.065,20.278 L 0,0 z"
         style="fill:#000000;fill-opacity:1;fill-rule:evenodd;stroke:none"
         id="path152"
         inkscape:connector-curvature="0" /></g><g
       id="g142"
       transform="matrix(1.25,0,0,-1.25,470.27413,165.73)"
       style="fill:#000000;display:inline"><path
         d="m 0,0 c -3.178,0 -6.361,-1.399 -8.785,-4.187 -0.883,-1.016 -1.553,-2.15 -2.116,-3.356 4.874,-5.061 12.363,-4.936 17.06,0.462 0.883,1.016 1.554,2.156 2.116,3.356 C 5.918,-1.282 2.973,0 0,0"
         style="fill:#000000;fill-opacity:1;fill-rule:nonzero;stroke:none"
         id="path144"
         inkscape:connector-curvature="0" /></g><g
       id="g146"
       transform="matrix(1.25,0,0,-1.25,430.60437,151.029)"
       style="fill:#000000;display:inline"><path
         d="m 0,0 c -0.365,0 -0.733,-0.084 -1.098,-0.122 -0.799,-4.533 0.317,-9.447 3.375,-12.963 2.703,-3.105 6.35,-4.392 9.882,-4.031 0.799,4.532 -0.317,9.415 -3.374,12.93 C 6.36,-1.401 3.177,0 0,0"
         style="fill:#000000;fill-opacity:1;fill-rule:nonzero;stroke:none"
         id="path148"
         inkscape:connector-curvature="0" /></g></g><g
     inkscape:groupmode="layer"
     id="layer1"
     inkscape:label="nine-top"
     style="display:inline"
     transform="translate(-0.12194,7.681645)"><g
       id="g158"
       transform="matrix(1.25,0,0,-1.25,273.96375,250.47725)"
       style="fill:#ffffff;stroke:none"><path
         d="m 0,0 c -11.43,13.138 -17.725,30.445 -17.725,48.729 0,18.286 6.295,35.592 17.725,48.731 12.06,13.862 28.306,21.499 45.748,21.499 17.441,0 33.688,-7.637 45.748,-21.499 L 63.89,73.444 c -5.007,5.756 -11.449,8.925 -18.142,8.925 -6.693,0 -13.136,-3.169 -18.143,-8.925 -11.653,-13.396 -11.654,-36.032 0,-49.43 L 0,0 z"
         style="fill:#ffffff;fill-opacity:1;fill-rule:nonzero;stroke:none"
         id="path160"
         inkscape:connector-curvature="0" /></g></g><g
     style="display:inline"
     inkscape:label="nine-top strokes"
     id="g3598"
     inkscape:groupmode="layer"
     transform="translate(-0.12194,7.681645)"><path
       d="M 273.99375,250.50725 C 259.67625,234.05475 251.8075,212.421 251.8075,189.566 c 0,-22.8575 7.86875,-44.49 22.15625,-60.91375 15.075,-17.3275 35.3825,-26.87375 57.185,-26.87375 21.80125,0 42.11,9.54625 57.205,26.89375"
       style="fill:none;stroke:#000000;stroke-width:5;stroke-miterlimit:35.79999924;stroke-opacity:1;stroke-dasharray:none"
       id="path3602"
       inkscape:connector-curvature="0" /><path
       inkscape:connector-curvature="0"
       id="path6707"
       style="fill:none;stroke:#000000;stroke-width:5;stroke-miterlimit:35.79999924;stroke-opacity:1;stroke-dasharray:none;display:inline"
       d="m 353.92625,158.82225 c -6.25875,-7.195 -14.31125,-11.15625 -22.6775,-11.15625 -8.36625,0 -16.42,3.96125 -22.67875,11.15625 -14.56625,16.745 -14.5675,45.04 0,61.7575" /></g></svg>